<svg width="400" height="300" viewBox="0 0 400 300" xmlns="http://www.w3.org/2000/svg" >
  <defs>
    <filter id="grunge" x="0" y="0" width="100%" height="100%" >
      <feTurbulence type="fractalNoise" baseFrequency="0.3" numOctaves="4" result="noise" />
      <feDisplacementMap in="SourceGraphic" in2="noise" scale="15" xChannelSelector="R" yChannelSelector="G" />
    </filter>
  </defs>

  <!-- Taches larges périphériques, bien espacées -->
  <path d="M310,80 Q350,40 390,80 Q370,110 340,140 Q310,160 290,140 Q310,80 310,80Z" fill="#8a2ce2" filter="url(#grunge)" />
  <path d="M30,150 Q80,130 120,160 Q140,190 120,220 Q80,230 50,210 Q30,180 30,150Z" fill="#8a2ce2" filter="url(#grunge)" />
  <path d="M240,180 Q280,140 320,180 Q350,210 320,240 Q280,240 250,210 Q240,180 240,180Z" fill="#8a2ce2" filter="url(#grunge)" />

  <!-- Taches moyennes réparties avec plus d’espacement -->
  <path d="M60,60 Q85,45 110,70 Q130,95 110,120 Q80,115 65,90 Q60,60 60,60Z" fill="#8a2ce2" filter="url(#grunge)" />
  <path d="M170,50 Q200,30 230,60 Q250,90 220,110 Q180,100 170,60 Q170,50 170,50Z" fill="#8a2ce2" filter="url(#grunge)" />
  <path d="M120,140 Q150,120 180,140 Q200,170 170,190 Q130,180 120,140Z" fill="#8a2ce2" filter="url(#grunge)" />
  <path d="M260,130 Q290,100 320,140 Q340,180 310,200 Q270,190 260,130Z" fill="#8a2ce2" filter="url(#grunge)" />

  <path d="M50,250 Q85,230 110,260 Q125,290 95,300 Q65,290 50,260 Q50,250 50,250Z" fill="#8a2ce2" filter="url(#grunge)" />

  <path d="M55,160 Q105,140 145,170 Q160,210 120,230 Q80,220 55,180 Q55,160 55,160Z" fill="#8a2ce2" filter="url(#grunge)" />
  <path d="M200,210 Q250,180 300,210 Q320,250 280,280 Q230,270 200,230 Q200,210 200,210Z" fill="#8a2ce2" filter="url(#grunge)" />
  <path d="M270,240 Q320,220 360,250 Q375,280 335,300 Q280,295 270,260 Q270,240 270,240Z" fill="#8a2ce2" filter="url(#grunge)" />

  <path d="M35,40 Q45,30 60,45 Q65,65 50,75 Q35,65 35,40Z" fill="#8a2ce2" filter="url(#grunge)" />
  <path d="M80,65 Q90,55 105,70 Q110,90 95,105 Q80,90 80,65Z" fill="#8a2ce2" filter="url(#grunge)" />
  <path d="M130,110 Q145,95 160,110 Q170,130 150,145 Q130,130 130,110Z" fill="#8a2ce2" filter="url(#grunge)" />
  <path d="M270,110 Q285,95 300,110 Q310,135 290,150 Q270,135 270,110Z" fill="#8a2ce2" filter="url(#grunge)" />
  <path d="M310,190 Q325,175 340,190 Q350,215 330,230 Q310,215 310,190Z" fill="#8a2ce2" filter="url(#grunge)" />

  <!-- Petits éclats sporadiques pour la texture finale -->
  <path d="M40,30 Q45,20 55,30 Q60,45 50,55 Q40,45 40,30Z" fill="#8a2ce2" filter="url(#grunge)" />
  <path d="M85,40 Q90,30 100,40 Q105,55 95,65 Q85,55 85,40Z" fill="#8a2ce2" filter="url(#grunge)" />
  <path d="M130,70 Q135,60 145,70 Q150,85 140,95 Q130,85 130,70Z" fill="#8a2ce2" filter="url(#grunge)" />
  <path d="M190,90 Q195,80 205,90 Q210,105 200,115 Q190,105 190,90Z" fill="#8a2ce2" filter="url(#grunge)" />
  <path d="M280,80 Q285,70 295,80 Q300,95 290,105 Q280,95 280,80Z" fill="#8a2ce2" filter="url(#grunge)" />
  <path d="M370,40 Q375,30 385,40 Q390,55 380,65 Q370,55 370,40Z" fill="#8a2ce2" filter="url(#grunge)" />
  <path d="M340,30 Q345,20 355,30 Q360,45 350,55 Q340,45 340,30Z" fill="#8a2ce2" filter="url(#grunge)" />
</svg>
