<svg viewBox="0 0 400 300" xmlns="http://www.w3.org/2000/svg" preserveAspectRatio="xMidYMid meet">
  <!-- Haut gauche -->
  <path fill="#ff1492" d="M40,-25C60,0,55,30,35,45C15,60,-10,50,-30,35C-50,20,-40,-5,-20,-20C0,-35,20,-25,40,-25Z" transform="translate(70 55)" />

  <path fill="#ff1492" d="M40,-25C60,0,55,30,35,45C15,60,-10,50,-40,35C-50,20,-40,-5,-20,-20C0,-35,20,-25,40,-25Z" transform="translate(70 240)" />

  <!-- Haut centre gauche -->
  <path fill="#ff1492" d="M18,-12C30,-2,28,15,18,25C8,35,-8,30,-18,20C-28,10,-20,-5,-10,-15C0,-25,10,-22,18,-12Z" transform="translate(135 45)" />

  <!-- Haut centre droite -->
  <path fill="#ff1492" d="M28,-18C44,0,40,28,24,40C8,52,-14,46,-26,34C-38,22,-28,2,-12,-12C4,-26,12,-26,28,-18Z" transform="translate(265 45)" />

  <!-- Haut droite -->
  <path fill="#ff1492" d="M20,-10C35,0,35,20,20,35C5,50,-10,40,-25,30C-40,20,-30,5,-15,-10C0,-25,10,-20,20,-10Z" transform="translate(330 55)" />

  <!-- Côté gauche haut -->
  <path fill="#ff1492" d="M15,-15C25,0,25,15,15,25C5,35,-10,30,-20,20C-30,10,-20,-10,-10,-20C0,-30,10,-25,15,-15Z" transform="translate(50 120)" />

  <!-- Côté gauche bas -->
  <path fill="#ff1492" d="M30,-20C50,0,45,25,25,40C5,55,-15,45,-30,30C-45,15,-35,-5,-20,-20C-5,-35,10,-30,30,-20Z" transform="translate(70 200)" />

  <!-- Bas gauche -->
  <path fill="#ff1492" d="M20,-10C30,0,30,15,20,25C10,35,-5,30,-15,20C-25,10,-20,-5,-10,-15C0,-25,10,-20,20,-10Z" transform="translate(100 255)" />

  <!-- Bas centre gauche -->
  <path fill="#ff1492" d="M15,-10C25,0,25,12,15,20C5,28,-8,25,-15,15C-22,5,-18,-5,-10,-12C-2,-19,5,-15,15,-10Z" transform="translate(150 255)" />

  <!-- Bas centre droite -->
  <path fill="#ff1492" d="M40,-25C55,-5,50,20,30,35C10,50,-15,45,-30,30C-45,15,-35,-5,-20,-20C-5,-35,25,-35,40,-25Z" transform="translate(250 255)" />

  <!-- Bas droite -->
  <path fill="#ff1492" d="M25,-15C40,0,40,25,25,40C10,55,-10,45,-25,35C-40,25,-30,5,-15,-10C0,-25,10,-20,25,-15Z" transform="translate(320 250)" />

  <!-- Côté droit haut -->
  <path fill="#ff1492" d="M15,-10C25,0,25,15,15,25C5,35,-10,30,-20,20C-30,10,-25,-5,-15,-15C-5,-25,10,-20,15,-10Z" transform="translate(350 105)" />

  <!-- Côté droit bas -->
  <path fill="#ff1492" d="M15,-10C25,0,25,15,15,25C5,35,-10,30,-20,20C-30,10,-25,-5,-15,-15C-5,-25,10,-20,15,-10Z" transform="translate(330 200)" />
</svg>
